<mxfile host="app.diagrams.net" modified="2023-12-03T00:58:27.888Z" agent="Mozilla/5.0 (Windows NT 10.0; Win64; x64) AppleWebKit/537.36 (KHTML, like Gecko) Chrome/119.0.0.0 Safari/537.36 Edg/119.0.0.0" etag="DUZwSdeckhbfNDfbEUKN" version="22.1.5" type="github">
  <diagram name="ページ1" id="qkXRaQuu1xS7nbxDsZPN">
    <mxGraphModel dx="2026" dy="1192" grid="1" gridSize="10" guides="1" tooltips="1" connect="1" arrows="1" fold="1" page="1" pageScale="1" pageWidth="827" pageHeight="1169" math="0" shadow="0">
      <root>
        <mxCell id="0" />
        <mxCell id="1" parent="0" />
        <mxCell id="ZsOxPBMALHmrqeJfx8bg-2" value="" style="rounded=1;whiteSpace=wrap;html=1;arcSize=6;fillColor=#fff2cc;strokeColor=#d6b656;" vertex="1" parent="1">
          <mxGeometry x="67" y="390" width="703" height="230" as="geometry" />
        </mxCell>
        <mxCell id="bLfK2yB55-KlpLb1q896-67" value="" style="shape=cylinder3;whiteSpace=wrap;html=1;boundedLbl=1;backgroundOutline=1;size=15;fontSize=14;fontStyle=1;fontColor=#FFFFFF;fillColor=#4D4D4D;strokeColor=default;" parent="1" vertex="1">
          <mxGeometry x="640" y="429" width="120" height="50" as="geometry" />
        </mxCell>
        <mxCell id="bLfK2yB55-KlpLb1q896-68" value="Model" style="rounded=1;whiteSpace=wrap;html=1;strokeColor=none;fillColor=#006600;fontColor=#FFFFFF;fontSize=16;fontStyle=1" parent="1" vertex="1">
          <mxGeometry x="457" y="430" width="120" height="50" as="geometry" />
        </mxCell>
        <mxCell id="bLfK2yB55-KlpLb1q896-69" value="Controller" style="rounded=1;whiteSpace=wrap;html=1;strokeColor=none;fillColor=#006600;fontColor=#FFFFFF;fontSize=16;fontStyle=1" parent="1" vertex="1">
          <mxGeometry x="260" y="490" width="120" height="50" as="geometry" />
        </mxCell>
        <mxCell id="bLfK2yB55-KlpLb1q896-70" value="View" style="rounded=1;whiteSpace=wrap;html=1;strokeColor=none;fillColor=#006600;fontColor=#FFFFFF;fontSize=16;fontStyle=1" parent="1" vertex="1">
          <mxGeometry x="457" y="550" width="120" height="50" as="geometry" />
        </mxCell>
        <mxCell id="bLfK2yB55-KlpLb1q896-71" value="" style="verticalLabelPosition=bottom;html=1;verticalAlign=top;align=center;strokeColor=none;fillColor=#333333;shape=mxgraph.azure.user;" parent="1" vertex="1">
          <mxGeometry x="93.25" y="475" width="47.5" height="50" as="geometry" />
        </mxCell>
        <mxCell id="bLfK2yB55-KlpLb1q896-72" value="" style="endArrow=classic;html=1;rounded=0;strokeWidth=3;" parent="1" edge="1">
          <mxGeometry width="50" height="50" relative="1" as="geometry">
            <mxPoint x="160" y="506" as="sourcePoint" />
            <mxPoint x="250" y="506" as="targetPoint" />
          </mxGeometry>
        </mxCell>
        <mxCell id="bLfK2yB55-KlpLb1q896-73" value="①ログイン&lt;br style=&quot;font-size: 12px;&quot;&gt;　情報送信&lt;br&gt;(Request)" style="text;html=1;strokeColor=none;fillColor=none;align=left;verticalAlign=middle;whiteSpace=wrap;rounded=0;fontSize=12;fontStyle=1" parent="1" vertex="1">
          <mxGeometry x="167" y="460" width="100" height="30" as="geometry" />
        </mxCell>
        <mxCell id="bLfK2yB55-KlpLb1q896-74" value="⑨画面表示&lt;br&gt;(Response)" style="text;html=1;strokeColor=none;fillColor=none;align=left;verticalAlign=middle;whiteSpace=wrap;rounded=0;fontSize=12;fontStyle=1" parent="1" vertex="1">
          <mxGeometry x="167" y="529" width="77" height="33" as="geometry" />
        </mxCell>
        <mxCell id="bLfK2yB55-KlpLb1q896-76" value="" style="endArrow=classic;html=1;rounded=0;strokeWidth=3;" parent="1" edge="1">
          <mxGeometry width="50" height="50" relative="1" as="geometry">
            <mxPoint x="250" y="520" as="sourcePoint" />
            <mxPoint x="160" y="520" as="targetPoint" />
          </mxGeometry>
        </mxCell>
        <mxCell id="bLfK2yB55-KlpLb1q896-77" value="" style="endArrow=classic;html=1;rounded=0;entryX=0;entryY=0.25;entryDx=0;entryDy=0;strokeWidth=3;" parent="1" edge="1">
          <mxGeometry width="50" height="50" relative="1" as="geometry">
            <mxPoint x="386" y="483" as="sourcePoint" />
            <mxPoint x="453" y="443" as="targetPoint" />
          </mxGeometry>
        </mxCell>
        <mxCell id="bLfK2yB55-KlpLb1q896-78" value="" style="endArrow=classic;html=1;rounded=0;strokeWidth=3;exitX=0;exitY=0.75;exitDx=0;exitDy=0;" parent="1" edge="1">
          <mxGeometry width="50" height="50" relative="1" as="geometry">
            <mxPoint x="453" y="463" as="sourcePoint" />
            <mxPoint x="386" y="503" as="targetPoint" />
          </mxGeometry>
        </mxCell>
        <mxCell id="bLfK2yB55-KlpLb1q896-79" value="" style="endArrow=classic;html=1;rounded=0;entryX=0;entryY=0.25;entryDx=0;entryDy=0;strokeWidth=3;" parent="1" edge="1">
          <mxGeometry width="50" height="50" relative="1" as="geometry">
            <mxPoint x="390" y="530" as="sourcePoint" />
            <mxPoint x="453" y="570" as="targetPoint" />
          </mxGeometry>
        </mxCell>
        <mxCell id="bLfK2yB55-KlpLb1q896-80" value="" style="endArrow=classic;html=1;rounded=0;strokeWidth=3;exitX=0;exitY=0.75;exitDx=0;exitDy=0;" parent="1" edge="1">
          <mxGeometry width="50" height="50" relative="1" as="geometry">
            <mxPoint x="453" y="590" as="sourcePoint" />
            <mxPoint x="386" y="550" as="targetPoint" />
          </mxGeometry>
        </mxCell>
        <mxCell id="bLfK2yB55-KlpLb1q896-81" value="" style="endArrow=classic;html=1;rounded=0;strokeWidth=3;" parent="1" edge="1">
          <mxGeometry width="50" height="50" relative="1" as="geometry">
            <mxPoint x="590" y="442" as="sourcePoint" />
            <mxPoint x="640" y="442" as="targetPoint" />
          </mxGeometry>
        </mxCell>
        <mxCell id="bLfK2yB55-KlpLb1q896-82" value="" style="endArrow=classic;html=1;rounded=0;strokeWidth=3;exitX=0;exitY=0.75;exitDx=0;exitDy=0;" parent="1" edge="1">
          <mxGeometry width="50" height="50" relative="1" as="geometry">
            <mxPoint x="637" y="460" as="sourcePoint" />
            <mxPoint x="590" y="460" as="targetPoint" />
          </mxGeometry>
        </mxCell>
        <mxCell id="bLfK2yB55-KlpLb1q896-83" value="" style="endArrow=classic;html=1;rounded=0;strokeWidth=3;" parent="1" edge="1">
          <mxGeometry width="50" height="50" relative="1" as="geometry">
            <mxPoint x="590" y="567" as="sourcePoint" />
            <mxPoint x="640" y="567" as="targetPoint" />
          </mxGeometry>
        </mxCell>
        <mxCell id="bLfK2yB55-KlpLb1q896-84" value="" style="endArrow=classic;html=1;rounded=0;strokeWidth=3;exitX=0;exitY=0.75;exitDx=0;exitDy=0;" parent="1" edge="1">
          <mxGeometry width="50" height="50" relative="1" as="geometry">
            <mxPoint x="637" y="585" as="sourcePoint" />
            <mxPoint x="590" y="585" as="targetPoint" />
          </mxGeometry>
        </mxCell>
        <mxCell id="bLfK2yB55-KlpLb1q896-85" value="クライアント&lt;br&gt;(画面閲覧者)" style="text;html=1;strokeColor=none;fillColor=none;align=center;verticalAlign=middle;whiteSpace=wrap;rounded=0;fontSize=12;fontStyle=1" parent="1" vertex="1">
          <mxGeometry x="67" y="526" width="100" height="30" as="geometry" />
        </mxCell>
        <mxCell id="bLfK2yB55-KlpLb1q896-86" value="②ログイン&lt;br&gt;　情報転送" style="text;html=1;strokeColor=none;fillColor=none;align=left;verticalAlign=middle;whiteSpace=wrap;rounded=0;fontSize=12;fontStyle=1" parent="1" vertex="1">
          <mxGeometry x="330" y="440" width="100" height="30" as="geometry" />
        </mxCell>
        <mxCell id="bLfK2yB55-KlpLb1q896-87" value="⑤ユーザー&lt;br&gt;　情報転送" style="text;html=1;strokeColor=none;fillColor=none;align=left;verticalAlign=middle;whiteSpace=wrap;rounded=0;fontSize=12;fontStyle=1" parent="1" vertex="1">
          <mxGeometry x="430" y="480" width="90" height="30" as="geometry" />
        </mxCell>
        <mxCell id="bLfK2yB55-KlpLb1q896-88" value="③ユーザー&lt;br&gt;　情報照会" style="text;html=1;strokeColor=none;fillColor=none;align=left;verticalAlign=middle;whiteSpace=wrap;rounded=0;fontSize=12;fontStyle=1" parent="1" vertex="1">
          <mxGeometry x="577" y="400" width="83" height="30" as="geometry" />
        </mxCell>
        <mxCell id="bLfK2yB55-KlpLb1q896-89" value="④照会結果&lt;br&gt;　送信" style="text;html=1;strokeColor=none;fillColor=none;align=left;verticalAlign=middle;whiteSpace=wrap;rounded=0;fontSize=12;fontStyle=1" parent="1" vertex="1">
          <mxGeometry x="577" y="479" width="83" height="30" as="geometry" />
        </mxCell>
        <mxCell id="bLfK2yB55-KlpLb1q896-90" value="⑥ログイン後の&lt;br&gt;　ユーザー画面照会" style="text;html=1;strokeColor=none;fillColor=none;align=left;verticalAlign=middle;whiteSpace=wrap;rounded=0;fontSize=12;fontStyle=1" parent="1" vertex="1">
          <mxGeometry x="430" y="520" width="110" height="30" as="geometry" />
        </mxCell>
        <mxCell id="bLfK2yB55-KlpLb1q896-91" value="⑧ユーザー画面&lt;br&gt;　送信" style="text;html=1;strokeColor=none;fillColor=none;align=left;verticalAlign=middle;whiteSpace=wrap;rounded=0;fontSize=12;fontStyle=1" parent="1" vertex="1">
          <mxGeometry x="330" y="570" width="100" height="30" as="geometry" />
        </mxCell>
        <mxCell id="bLfK2yB55-KlpLb1q896-92" value="⑦HTML/CSS等&lt;br&gt;　の情報連携" style="text;html=1;strokeColor=none;fillColor=none;align=left;verticalAlign=middle;whiteSpace=wrap;rounded=0;fontSize=12;fontStyle=1" parent="1" vertex="1">
          <mxGeometry x="577" y="520" width="100" height="30" as="geometry" />
        </mxCell>
        <mxCell id="bLfK2yB55-KlpLb1q896-93" value="Database" style="text;html=1;strokeColor=none;fillColor=none;align=center;verticalAlign=middle;whiteSpace=wrap;rounded=0;fontStyle=1;fontColor=#FFFFFF;fontSize=16;" parent="1" vertex="1">
          <mxGeometry x="661" y="440" width="86" height="30" as="geometry" />
        </mxCell>
        <mxCell id="bLfK2yB55-KlpLb1q896-97" value="画面表示" style="strokeWidth=2;html=1;shape=mxgraph.flowchart.display;whiteSpace=wrap;fillColor=#4D4D4D;strokeColor=none;fontColor=#FFFFFF;fontStyle=1;fontSize=15;" parent="1" vertex="1">
          <mxGeometry x="640" y="550" width="120" height="50" as="geometry" />
        </mxCell>
      </root>
    </mxGraphModel>
  </diagram>
</mxfile>
